<?xml version="1.0" standalone="no"?>
<!DOCTYPE svg PUBLIC "-//W3C//DTD SVG 20010904//EN"
 "http://www.w3.org/TR/2001/REC-SVG-20010904/DTD/svg10.dtd">
<svg version="1.0" xmlns="http://www.w3.org/2000/svg"
 width="215.000000pt" height="290.000000pt" viewBox="0 0 215.000000 290.000000"
 preserveAspectRatio="xMidYMid meet">

<g transform="translate(0.000000,290.000000) scale(0.100000,-0.100000)"
fill="#1d4ed8" stroke="none">
<path d="M1018 2529 c-83 -12 -163 -55 -235 -125 -81 -79 -122 -164 -137 -280
l-10 -84 -86 0 c-111 0 -170 -20 -226 -76 -76 -75 -75 -69 -72 -730 3 -573 3
-579 25 -620 29 -54 93 -110 140 -123 25 -7 262 -11 693 -11 l655 0 50 24 c59
27 106 77 129 137 15 40 16 104 14 634 -3 651 0 617 -67 688 -50 54 -96 71
-212 75 l-107 4 -6 60 c-25 220 -156 375 -358 423 -69 16 -104 17 -190 4z
m208 -170 c51 -21 109 -71 140 -121 25 -39 54 -134 54 -175 l0 -23 -316 0
-316 0 4 53 c5 62 43 149 86 198 77 87 232 118 348 68z m-191 -748 c34 -15 68
-36 78 -45 16 -17 19 -16 47 7 46 39 132 67 205 67 92 0 167 -31 230 -94 80
-80 88 -117 90 -423 l3 -253 -104 0 -103 0 -3 249 c-3 249 -3 250 -27 275 -53
56 -151 52 -195 -7 -20 -27 -21 -43 -24 -273 l-3 -244 -99 0 -99 0 -3 244 c-3
230 -4 246 -24 273 -11 15 -39 34 -61 42 -35 13 -46 13 -78 0 -21 -8 -47 -27
-59 -42 -20 -27 -21 -42 -24 -273 l-3 -244 -99 0 -100 0 3 263 c4 311 8 330
96 418 67 67 118 87 221 88 63 1 85 -4 135 -28z"/>
</g>
</svg>
